<?xml version="1.0" encoding="utf-8" standalone="no"?>
<!DOCTYPE svg PUBLIC "-//W3C//DTD SVG 1.1//EN"
  "http://www.w3.org/Graphics/SVG/1.1/DTD/svg11.dtd">
<svg xmlns:xlink="http://www.w3.org/1999/xlink" width="720pt" height="432pt" viewBox="0 0 720 432" xmlns="http://www.w3.org/2000/svg" version="1.1">
 <metadata>
  <rdf:RDF xmlns:dc="http://purl.org/dc/elements/1.1/" xmlns:cc="http://creativecommons.org/ns#" xmlns:rdf="http://www.w3.org/1999/02/22-rdf-syntax-ns#">
   <cc:Work>
    <dc:type rdf:resource="http://purl.org/dc/dcmitype/StillImage"/>
    <dc:date>2023-07-28T16:45:35.369548</dc:date>
    <dc:format>image/svg+xml</dc:format>
    <dc:creator>
     <cc:Agent>
      <dc:title>Matplotlib v3.7.1, https://matplotlib.org/</dc:title>
     </cc:Agent>
    </dc:creator>
   </cc:Work>
  </rdf:RDF>
 </metadata>
 <defs>
  <style type="text/css">*{stroke-linejoin: round; stroke-linecap: butt}</style>
 </defs>
 <g id="figure_1">
  <g id="patch_1">
   <path d="M 0 432 
L 720 432 
L 720 0 
L 0 0 
z
" style="fill: #ffffff"/>
  </g>
  <g id="axes_1">
   <g id="patch_2">
    <path d="M 106.58 338.289757 
L 686.423364 338.289757 
L 686.423364 28.32 
L 106.58 28.32 
z
" style="fill: #ffffff"/>
   </g>
   <g id="matplotlib.axis_1">
    <g id="xtick_1">
     <g id="line2d_1">
      <defs>
       <path id="m6afc61a4a6" d="M 0 0 
L 0 3.5 
" style="stroke: #000000; stroke-width: 0.8"/>
      </defs>
      <g>
       <use xlink:href="#m6afc61a4a6" x="137.392185" y="338.289757" style="stroke: #000000; stroke-width: 0.8"/>
      </g>
     </g>
     <g id="text_1">
      <!-- 2012-01-01 -->
      <g transform="translate(115.077221 401.049988) rotate(-45) scale(0.12 -0.12)">
       <defs>
        <path id="DejaVuSans-32" d="M 1228 531 
L 3431 531 
L 3431 0 
L 469 0 
L 469 531 
Q 828 903 1448 1529 
Q 2069 2156 2228 2338 
Q 2531 2678 2651 2914 
Q 2772 3150 2772 3378 
Q 2772 3750 2511 3984 
Q 2250 4219 1831 4219 
Q 1534 4219 1204 4116 
Q 875 4013 500 3803 
L 500 4441 
Q 881 4594 1212 4672 
Q 1544 4750 1819 4750 
Q 2544 4750 2975 4387 
Q 3406 4025 3406 3419 
Q 3406 3131 3298 2873 
Q 3191 2616 2906 2266 
Q 2828 2175 2409 1742 
Q 1991 1309 1228 531 
z
" transform="scale(0.015625)"/>
        <path id="DejaVuSans-30" d="M 2034 4250 
Q 1547 4250 1301 3770 
Q 1056 3291 1056 2328 
Q 1056 1369 1301 889 
Q 1547 409 2034 409 
Q 2525 409 2770 889 
Q 3016 1369 3016 2328 
Q 3016 3291 2770 3770 
Q 2525 4250 2034 4250 
z
M 2034 4750 
Q 2819 4750 3233 4129 
Q 3647 3509 3647 2328 
Q 3647 1150 3233 529 
Q 2819 -91 2034 -91 
Q 1250 -91 836 529 
Q 422 1150 422 2328 
Q 422 3509 836 4129 
Q 1250 4750 2034 4750 
z
" transform="scale(0.015625)"/>
        <path id="DejaVuSans-31" d="M 794 531 
L 1825 531 
L 1825 4091 
L 703 3866 
L 703 4441 
L 1819 4666 
L 2450 4666 
L 2450 531 
L 3481 531 
L 3481 0 
L 794 0 
L 794 531 
z
" transform="scale(0.015625)"/>
        <path id="DejaVuSans-2d" d="M 313 2009 
L 1997 2009 
L 1997 1497 
L 313 1497 
L 313 2009 
z
" transform="scale(0.015625)"/>
       </defs>
       <use xlink:href="#DejaVuSans-32"/>
       <use xlink:href="#DejaVuSans-30" x="63.623047"/>
       <use xlink:href="#DejaVuSans-31" x="127.246094"/>
       <use xlink:href="#DejaVuSans-32" x="190.869141"/>
       <use xlink:href="#DejaVuSans-2d" x="254.492188"/>
       <use xlink:href="#DejaVuSans-30" x="290.576172"/>
       <use xlink:href="#DejaVuSans-31" x="354.199219"/>
       <use xlink:href="#DejaVuSans-2d" x="417.822266"/>
       <use xlink:href="#DejaVuSans-30" x="453.90625"/>
       <use xlink:href="#DejaVuSans-31" x="517.529297"/>
      </g>
     </g>
    </g>
    <g id="xtick_2">
     <g id="line2d_2">
      <g>
       <use xlink:href="#m6afc61a4a6" x="227.867008" y="338.289757" style="stroke: #000000; stroke-width: 0.8"/>
      </g>
     </g>
     <g id="text_2">
      <!-- 2014-01-01 -->
      <g transform="translate(205.552044 401.049988) rotate(-45) scale(0.12 -0.12)">
       <defs>
        <path id="DejaVuSans-34" d="M 2419 4116 
L 825 1625 
L 2419 1625 
L 2419 4116 
z
M 2253 4666 
L 3047 4666 
L 3047 1625 
L 3713 1625 
L 3713 1100 
L 3047 1100 
L 3047 0 
L 2419 0 
L 2419 1100 
L 313 1100 
L 313 1709 
L 2253 4666 
z
" transform="scale(0.015625)"/>
       </defs>
       <use xlink:href="#DejaVuSans-32"/>
       <use xlink:href="#DejaVuSans-30" x="63.623047"/>
       <use xlink:href="#DejaVuSans-31" x="127.246094"/>
       <use xlink:href="#DejaVuSans-34" x="190.869141"/>
       <use xlink:href="#DejaVuSans-2d" x="254.492188"/>
       <use xlink:href="#DejaVuSans-30" x="290.576172"/>
       <use xlink:href="#DejaVuSans-31" x="354.199219"/>
       <use xlink:href="#DejaVuSans-2d" x="417.822266"/>
       <use xlink:href="#DejaVuSans-30" x="453.90625"/>
       <use xlink:href="#DejaVuSans-31" x="517.529297"/>
      </g>
     </g>
    </g>
    <g id="xtick_3">
     <g id="line2d_3">
      <g>
       <use xlink:href="#m6afc61a4a6" x="318.218063" y="338.289757" style="stroke: #000000; stroke-width: 0.8"/>
      </g>
     </g>
     <g id="text_3">
      <!-- 2016-01-01 -->
      <g transform="translate(295.903099 401.049988) rotate(-45) scale(0.12 -0.12)">
       <defs>
        <path id="DejaVuSans-36" d="M 2113 2584 
Q 1688 2584 1439 2293 
Q 1191 2003 1191 1497 
Q 1191 994 1439 701 
Q 1688 409 2113 409 
Q 2538 409 2786 701 
Q 3034 994 3034 1497 
Q 3034 2003 2786 2293 
Q 2538 2584 2113 2584 
z
M 3366 4563 
L 3366 3988 
Q 3128 4100 2886 4159 
Q 2644 4219 2406 4219 
Q 1781 4219 1451 3797 
Q 1122 3375 1075 2522 
Q 1259 2794 1537 2939 
Q 1816 3084 2150 3084 
Q 2853 3084 3261 2657 
Q 3669 2231 3669 1497 
Q 3669 778 3244 343 
Q 2819 -91 2113 -91 
Q 1303 -91 875 529 
Q 447 1150 447 2328 
Q 447 3434 972 4092 
Q 1497 4750 2381 4750 
Q 2619 4750 2861 4703 
Q 3103 4656 3366 4563 
z
" transform="scale(0.015625)"/>
       </defs>
       <use xlink:href="#DejaVuSans-32"/>
       <use xlink:href="#DejaVuSans-30" x="63.623047"/>
       <use xlink:href="#DejaVuSans-31" x="127.246094"/>
       <use xlink:href="#DejaVuSans-36" x="190.869141"/>
       <use xlink:href="#DejaVuSans-2d" x="254.492188"/>
       <use xlink:href="#DejaVuSans-30" x="290.576172"/>
       <use xlink:href="#DejaVuSans-31" x="354.199219"/>
       <use xlink:href="#DejaVuSans-2d" x="417.822266"/>
       <use xlink:href="#DejaVuSans-30" x="453.90625"/>
       <use xlink:href="#DejaVuSans-31" x="517.529297"/>
      </g>
     </g>
    </g>
    <g id="xtick_4">
     <g id="line2d_4">
      <g>
       <use xlink:href="#m6afc61a4a6" x="408.692886" y="338.289757" style="stroke: #000000; stroke-width: 0.8"/>
      </g>
     </g>
     <g id="text_4">
      <!-- 2018-01-01 -->
      <g transform="translate(386.377922 401.049988) rotate(-45) scale(0.12 -0.12)">
       <defs>
        <path id="DejaVuSans-38" d="M 2034 2216 
Q 1584 2216 1326 1975 
Q 1069 1734 1069 1313 
Q 1069 891 1326 650 
Q 1584 409 2034 409 
Q 2484 409 2743 651 
Q 3003 894 3003 1313 
Q 3003 1734 2745 1975 
Q 2488 2216 2034 2216 
z
M 1403 2484 
Q 997 2584 770 2862 
Q 544 3141 544 3541 
Q 544 4100 942 4425 
Q 1341 4750 2034 4750 
Q 2731 4750 3128 4425 
Q 3525 4100 3525 3541 
Q 3525 3141 3298 2862 
Q 3072 2584 2669 2484 
Q 3125 2378 3379 2068 
Q 3634 1759 3634 1313 
Q 3634 634 3220 271 
Q 2806 -91 2034 -91 
Q 1263 -91 848 271 
Q 434 634 434 1313 
Q 434 1759 690 2068 
Q 947 2378 1403 2484 
z
M 1172 3481 
Q 1172 3119 1398 2916 
Q 1625 2713 2034 2713 
Q 2441 2713 2670 2916 
Q 2900 3119 2900 3481 
Q 2900 3844 2670 4047 
Q 2441 4250 2034 4250 
Q 1625 4250 1398 4047 
Q 1172 3844 1172 3481 
z
" transform="scale(0.015625)"/>
       </defs>
       <use xlink:href="#DejaVuSans-32"/>
       <use xlink:href="#DejaVuSans-30" x="63.623047"/>
       <use xlink:href="#DejaVuSans-31" x="127.246094"/>
       <use xlink:href="#DejaVuSans-38" x="190.869141"/>
       <use xlink:href="#DejaVuSans-2d" x="254.492188"/>
       <use xlink:href="#DejaVuSans-30" x="290.576172"/>
       <use xlink:href="#DejaVuSans-31" x="354.199219"/>
       <use xlink:href="#DejaVuSans-2d" x="417.822266"/>
       <use xlink:href="#DejaVuSans-30" x="453.90625"/>
       <use xlink:href="#DejaVuSans-31" x="517.529297"/>
      </g>
     </g>
    </g>
    <g id="xtick_5">
     <g id="line2d_5">
      <g>
       <use xlink:href="#m6afc61a4a6" x="499.043941" y="338.289757" style="stroke: #000000; stroke-width: 0.8"/>
      </g>
     </g>
     <g id="text_5">
      <!-- 2020-01-01 -->
      <g transform="translate(476.728976 401.049988) rotate(-45) scale(0.12 -0.12)">
       <use xlink:href="#DejaVuSans-32"/>
       <use xlink:href="#DejaVuSans-30" x="63.623047"/>
       <use xlink:href="#DejaVuSans-32" x="127.246094"/>
       <use xlink:href="#DejaVuSans-30" x="190.869141"/>
       <use xlink:href="#DejaVuSans-2d" x="254.492188"/>
       <use xlink:href="#DejaVuSans-30" x="290.576172"/>
       <use xlink:href="#DejaVuSans-31" x="354.199219"/>
       <use xlink:href="#DejaVuSans-2d" x="417.822266"/>
       <use xlink:href="#DejaVuSans-30" x="453.90625"/>
       <use xlink:href="#DejaVuSans-31" x="517.529297"/>
      </g>
     </g>
    </g>
    <g id="xtick_6">
     <g id="line2d_6">
      <g>
       <use xlink:href="#m6afc61a4a6" x="589.518764" y="338.289757" style="stroke: #000000; stroke-width: 0.8"/>
      </g>
     </g>
     <g id="text_6">
      <!-- 2022-01-01 -->
      <g transform="translate(567.2038 401.049988) rotate(-45) scale(0.12 -0.12)">
       <use xlink:href="#DejaVuSans-32"/>
       <use xlink:href="#DejaVuSans-30" x="63.623047"/>
       <use xlink:href="#DejaVuSans-32" x="127.246094"/>
       <use xlink:href="#DejaVuSans-32" x="190.869141"/>
       <use xlink:href="#DejaVuSans-2d" x="254.492188"/>
       <use xlink:href="#DejaVuSans-30" x="290.576172"/>
       <use xlink:href="#DejaVuSans-31" x="354.199219"/>
       <use xlink:href="#DejaVuSans-2d" x="417.822266"/>
       <use xlink:href="#DejaVuSans-30" x="453.90625"/>
       <use xlink:href="#DejaVuSans-31" x="517.529297"/>
      </g>
     </g>
    </g>
    <g id="xtick_7">
     <g id="line2d_7">
      <g>
       <use xlink:href="#m6afc61a4a6" x="679.869819" y="338.289757" style="stroke: #000000; stroke-width: 0.8"/>
      </g>
     </g>
     <g id="text_7">
      <!-- 2024-01-01 -->
      <g transform="translate(657.554854 401.049988) rotate(-45) scale(0.12 -0.12)">
       <use xlink:href="#DejaVuSans-32"/>
       <use xlink:href="#DejaVuSans-30" x="63.623047"/>
       <use xlink:href="#DejaVuSans-32" x="127.246094"/>
       <use xlink:href="#DejaVuSans-34" x="190.869141"/>
       <use xlink:href="#DejaVuSans-2d" x="254.492188"/>
       <use xlink:href="#DejaVuSans-30" x="290.576172"/>
       <use xlink:href="#DejaVuSans-31" x="354.199219"/>
       <use xlink:href="#DejaVuSans-2d" x="417.822266"/>
       <use xlink:href="#DejaVuSans-30" x="453.90625"/>
       <use xlink:href="#DejaVuSans-31" x="517.529297"/>
      </g>
     </g>
    </g>
    <g id="text_8">
     <!-- Date -->
     <g transform="translate(379.770588 417.452473) scale(0.14 -0.14)">
      <defs>
       <path id="DejaVuSans-44" d="M 1259 4147 
L 1259 519 
L 2022 519 
Q 2988 519 3436 956 
Q 3884 1394 3884 2338 
Q 3884 3275 3436 3711 
Q 2988 4147 2022 4147 
L 1259 4147 
z
M 628 4666 
L 1925 4666 
Q 3281 4666 3915 4102 
Q 4550 3538 4550 2338 
Q 4550 1131 3912 565 
Q 3275 0 1925 0 
L 628 0 
L 628 4666 
z
" transform="scale(0.015625)"/>
       <path id="DejaVuSans-61" d="M 2194 1759 
Q 1497 1759 1228 1600 
Q 959 1441 959 1056 
Q 959 750 1161 570 
Q 1363 391 1709 391 
Q 2188 391 2477 730 
Q 2766 1069 2766 1631 
L 2766 1759 
L 2194 1759 
z
M 3341 1997 
L 3341 0 
L 2766 0 
L 2766 531 
Q 2569 213 2275 61 
Q 1981 -91 1556 -91 
Q 1019 -91 701 211 
Q 384 513 384 1019 
Q 384 1609 779 1909 
Q 1175 2209 1959 2209 
L 2766 2209 
L 2766 2266 
Q 2766 2663 2505 2880 
Q 2244 3097 1772 3097 
Q 1472 3097 1187 3025 
Q 903 2953 641 2809 
L 641 3341 
Q 956 3463 1253 3523 
Q 1550 3584 1831 3584 
Q 2591 3584 2966 3190 
Q 3341 2797 3341 1997 
z
" transform="scale(0.015625)"/>
       <path id="DejaVuSans-74" d="M 1172 4494 
L 1172 3500 
L 2356 3500 
L 2356 3053 
L 1172 3053 
L 1172 1153 
Q 1172 725 1289 603 
Q 1406 481 1766 481 
L 2356 481 
L 2356 0 
L 1766 0 
Q 1100 0 847 248 
Q 594 497 594 1153 
L 594 3053 
L 172 3053 
L 172 3500 
L 594 3500 
L 594 4494 
L 1172 4494 
z
" transform="scale(0.015625)"/>
       <path id="DejaVuSans-65" d="M 3597 1894 
L 3597 1613 
L 953 1613 
Q 991 1019 1311 708 
Q 1631 397 2203 397 
Q 2534 397 2845 478 
Q 3156 559 3463 722 
L 3463 178 
Q 3153 47 2828 -22 
Q 2503 -91 2169 -91 
Q 1331 -91 842 396 
Q 353 884 353 1716 
Q 353 2575 817 3079 
Q 1281 3584 2069 3584 
Q 2775 3584 3186 3129 
Q 3597 2675 3597 1894 
z
M 3022 2063 
Q 3016 2534 2758 2815 
Q 2500 3097 2075 3097 
Q 1594 3097 1305 2825 
Q 1016 2553 972 2059 
L 3022 2063 
z
" transform="scale(0.015625)"/>
      </defs>
      <use xlink:href="#DejaVuSans-44"/>
      <use xlink:href="#DejaVuSans-61" x="77.001953"/>
      <use xlink:href="#DejaVuSans-74" x="138.28125"/>
      <use xlink:href="#DejaVuSans-65" x="177.490234"/>
     </g>
    </g>
   </g>
   <g id="matplotlib.axis_2">
    <g id="ytick_1">
     <g id="line2d_8">
      <path d="M 106.58 331.203546 
L 686.423364 331.203546 
" clip-path="url(#p706d38d4c1)" style="fill: none; stroke-dasharray: 2.96,1.28; stroke-dashoffset: 0; stroke: #b0b0b0; stroke-opacity: 0.7; stroke-width: 0.8"/>
     </g>
     <g id="line2d_9">
      <defs>
       <path id="m69ae8b227f" d="M 0 0 
L -3.5 0 
" style="stroke: #000000; stroke-width: 0.8"/>
      </defs>
      <g>
       <use xlink:href="#m69ae8b227f" x="106.58" y="331.203546" style="stroke: #000000; stroke-width: 0.8"/>
      </g>
     </g>
     <g id="text_9">
      <!-- 0 Rls -->
      <g transform="translate(70.208125 335.762609) scale(0.12 -0.12)">
       <defs>
        <path id="DejaVuSans-20" transform="scale(0.015625)"/>
        <path id="DejaVuSans-52" d="M 2841 2188 
Q 3044 2119 3236 1894 
Q 3428 1669 3622 1275 
L 4263 0 
L 3584 0 
L 2988 1197 
Q 2756 1666 2539 1819 
Q 2322 1972 1947 1972 
L 1259 1972 
L 1259 0 
L 628 0 
L 628 4666 
L 2053 4666 
Q 2853 4666 3247 4331 
Q 3641 3997 3641 3322 
Q 3641 2881 3436 2590 
Q 3231 2300 2841 2188 
z
M 1259 4147 
L 1259 2491 
L 2053 2491 
Q 2509 2491 2742 2702 
Q 2975 2913 2975 3322 
Q 2975 3731 2742 3939 
Q 2509 4147 2053 4147 
L 1259 4147 
z
" transform="scale(0.015625)"/>
        <path id="DejaVuSans-6c" d="M 603 4863 
L 1178 4863 
L 1178 0 
L 603 0 
L 603 4863 
z
" transform="scale(0.015625)"/>
        <path id="DejaVuSans-73" d="M 2834 3397 
L 2834 2853 
Q 2591 2978 2328 3040 
Q 2066 3103 1784 3103 
Q 1356 3103 1142 2972 
Q 928 2841 928 2578 
Q 928 2378 1081 2264 
Q 1234 2150 1697 2047 
L 1894 2003 
Q 2506 1872 2764 1633 
Q 3022 1394 3022 966 
Q 3022 478 2636 193 
Q 2250 -91 1575 -91 
Q 1294 -91 989 -36 
Q 684 19 347 128 
L 347 722 
Q 666 556 975 473 
Q 1284 391 1588 391 
Q 1994 391 2212 530 
Q 2431 669 2431 922 
Q 2431 1156 2273 1281 
Q 2116 1406 1581 1522 
L 1381 1569 
Q 847 1681 609 1914 
Q 372 2147 372 2553 
Q 372 3047 722 3315 
Q 1072 3584 1716 3584 
Q 2034 3584 2315 3537 
Q 2597 3491 2834 3397 
z
" transform="scale(0.015625)"/>
       </defs>
       <use xlink:href="#DejaVuSans-30"/>
       <use xlink:href="#DejaVuSans-20" x="63.623047"/>
       <use xlink:href="#DejaVuSans-52" x="95.410156"/>
       <use xlink:href="#DejaVuSans-6c" x="164.892578"/>
       <use xlink:href="#DejaVuSans-73" x="192.675781"/>
      </g>
     </g>
    </g>
    <g id="ytick_2">
     <g id="line2d_10">
      <path d="M 106.58 278.744188 
L 686.423364 278.744188 
" clip-path="url(#p706d38d4c1)" style="fill: none; stroke-dasharray: 2.96,1.28; stroke-dashoffset: 0; stroke: #b0b0b0; stroke-opacity: 0.7; stroke-width: 0.8"/>
     </g>
     <g id="line2d_11">
      <g>
       <use xlink:href="#m69ae8b227f" x="106.58" y="278.744188" style="stroke: #000000; stroke-width: 0.8"/>
      </g>
     </g>
     <g id="text_10">
      <!-- 100,000 Rls -->
      <g transform="translate(28.219375 283.303251) scale(0.12 -0.12)">
       <defs>
        <path id="DejaVuSans-2c" d="M 750 794 
L 1409 794 
L 1409 256 
L 897 -744 
L 494 -744 
L 750 256 
L 750 794 
z
" transform="scale(0.015625)"/>
       </defs>
       <use xlink:href="#DejaVuSans-31"/>
       <use xlink:href="#DejaVuSans-30" x="63.623047"/>
       <use xlink:href="#DejaVuSans-30" x="127.246094"/>
       <use xlink:href="#DejaVuSans-2c" x="190.869141"/>
       <use xlink:href="#DejaVuSans-30" x="222.65625"/>
       <use xlink:href="#DejaVuSans-30" x="286.279297"/>
       <use xlink:href="#DejaVuSans-30" x="349.902344"/>
       <use xlink:href="#DejaVuSans-20" x="413.525391"/>
       <use xlink:href="#DejaVuSans-52" x="445.3125"/>
       <use xlink:href="#DejaVuSans-6c" x="514.794922"/>
       <use xlink:href="#DejaVuSans-73" x="542.578125"/>
      </g>
     </g>
    </g>
    <g id="ytick_3">
     <g id="line2d_12">
      <path d="M 106.58 226.28483 
L 686.423364 226.28483 
" clip-path="url(#p706d38d4c1)" style="fill: none; stroke-dasharray: 2.96,1.28; stroke-dashoffset: 0; stroke: #b0b0b0; stroke-opacity: 0.7; stroke-width: 0.8"/>
     </g>
     <g id="line2d_13">
      <g>
       <use xlink:href="#m69ae8b227f" x="106.58" y="226.28483" style="stroke: #000000; stroke-width: 0.8"/>
      </g>
     </g>
     <g id="text_11">
      <!-- 200,000 Rls -->
      <g transform="translate(28.219375 230.843893) scale(0.12 -0.12)">
       <use xlink:href="#DejaVuSans-32"/>
       <use xlink:href="#DejaVuSans-30" x="63.623047"/>
       <use xlink:href="#DejaVuSans-30" x="127.246094"/>
       <use xlink:href="#DejaVuSans-2c" x="190.869141"/>
       <use xlink:href="#DejaVuSans-30" x="222.65625"/>
       <use xlink:href="#DejaVuSans-30" x="286.279297"/>
       <use xlink:href="#DejaVuSans-30" x="349.902344"/>
       <use xlink:href="#DejaVuSans-20" x="413.525391"/>
       <use xlink:href="#DejaVuSans-52" x="445.3125"/>
       <use xlink:href="#DejaVuSans-6c" x="514.794922"/>
       <use xlink:href="#DejaVuSans-73" x="542.578125"/>
      </g>
     </g>
    </g>
    <g id="ytick_4">
     <g id="line2d_14">
      <path d="M 106.58 173.825472 
L 686.423364 173.825472 
" clip-path="url(#p706d38d4c1)" style="fill: none; stroke-dasharray: 2.96,1.28; stroke-dashoffset: 0; stroke: #b0b0b0; stroke-opacity: 0.7; stroke-width: 0.8"/>
     </g>
     <g id="line2d_15">
      <g>
       <use xlink:href="#m69ae8b227f" x="106.58" y="173.825472" style="stroke: #000000; stroke-width: 0.8"/>
      </g>
     </g>
     <g id="text_12">
      <!-- 300,000 Rls -->
      <g transform="translate(28.219375 178.384535) scale(0.12 -0.12)">
       <defs>
        <path id="DejaVuSans-33" d="M 2597 2516 
Q 3050 2419 3304 2112 
Q 3559 1806 3559 1356 
Q 3559 666 3084 287 
Q 2609 -91 1734 -91 
Q 1441 -91 1130 -33 
Q 819 25 488 141 
L 488 750 
Q 750 597 1062 519 
Q 1375 441 1716 441 
Q 2309 441 2620 675 
Q 2931 909 2931 1356 
Q 2931 1769 2642 2001 
Q 2353 2234 1838 2234 
L 1294 2234 
L 1294 2753 
L 1863 2753 
Q 2328 2753 2575 2939 
Q 2822 3125 2822 3475 
Q 2822 3834 2567 4026 
Q 2313 4219 1838 4219 
Q 1578 4219 1281 4162 
Q 984 4106 628 3988 
L 628 4550 
Q 988 4650 1302 4700 
Q 1616 4750 1894 4750 
Q 2613 4750 3031 4423 
Q 3450 4097 3450 3541 
Q 3450 3153 3228 2886 
Q 3006 2619 2597 2516 
z
" transform="scale(0.015625)"/>
       </defs>
       <use xlink:href="#DejaVuSans-33"/>
       <use xlink:href="#DejaVuSans-30" x="63.623047"/>
       <use xlink:href="#DejaVuSans-30" x="127.246094"/>
       <use xlink:href="#DejaVuSans-2c" x="190.869141"/>
       <use xlink:href="#DejaVuSans-30" x="222.65625"/>
       <use xlink:href="#DejaVuSans-30" x="286.279297"/>
       <use xlink:href="#DejaVuSans-30" x="349.902344"/>
       <use xlink:href="#DejaVuSans-20" x="413.525391"/>
       <use xlink:href="#DejaVuSans-52" x="445.3125"/>
       <use xlink:href="#DejaVuSans-6c" x="514.794922"/>
       <use xlink:href="#DejaVuSans-73" x="542.578125"/>
      </g>
     </g>
    </g>
    <g id="ytick_5">
     <g id="line2d_16">
      <path d="M 106.58 121.366114 
L 686.423364 121.366114 
" clip-path="url(#p706d38d4c1)" style="fill: none; stroke-dasharray: 2.96,1.28; stroke-dashoffset: 0; stroke: #b0b0b0; stroke-opacity: 0.7; stroke-width: 0.8"/>
     </g>
     <g id="line2d_17">
      <g>
       <use xlink:href="#m69ae8b227f" x="106.58" y="121.366114" style="stroke: #000000; stroke-width: 0.8"/>
      </g>
     </g>
     <g id="text_13">
      <!-- 400,000 Rls -->
      <g transform="translate(28.219375 125.925177) scale(0.12 -0.12)">
       <use xlink:href="#DejaVuSans-34"/>
       <use xlink:href="#DejaVuSans-30" x="63.623047"/>
       <use xlink:href="#DejaVuSans-30" x="127.246094"/>
       <use xlink:href="#DejaVuSans-2c" x="190.869141"/>
       <use xlink:href="#DejaVuSans-30" x="222.65625"/>
       <use xlink:href="#DejaVuSans-30" x="286.279297"/>
       <use xlink:href="#DejaVuSans-30" x="349.902344"/>
       <use xlink:href="#DejaVuSans-20" x="413.525391"/>
       <use xlink:href="#DejaVuSans-52" x="445.3125"/>
       <use xlink:href="#DejaVuSans-6c" x="514.794922"/>
       <use xlink:href="#DejaVuSans-73" x="542.578125"/>
      </g>
     </g>
    </g>
    <g id="ytick_6">
     <g id="line2d_18">
      <path d="M 106.58 68.906756 
L 686.423364 68.906756 
" clip-path="url(#p706d38d4c1)" style="fill: none; stroke-dasharray: 2.96,1.28; stroke-dashoffset: 0; stroke: #b0b0b0; stroke-opacity: 0.7; stroke-width: 0.8"/>
     </g>
     <g id="line2d_19">
      <g>
       <use xlink:href="#m69ae8b227f" x="106.58" y="68.906756" style="stroke: #000000; stroke-width: 0.8"/>
      </g>
     </g>
     <g id="text_14">
      <!-- 500,000 Rls -->
      <g transform="translate(28.219375 73.465819) scale(0.12 -0.12)">
       <defs>
        <path id="DejaVuSans-35" d="M 691 4666 
L 3169 4666 
L 3169 4134 
L 1269 4134 
L 1269 2991 
Q 1406 3038 1543 3061 
Q 1681 3084 1819 3084 
Q 2600 3084 3056 2656 
Q 3513 2228 3513 1497 
Q 3513 744 3044 326 
Q 2575 -91 1722 -91 
Q 1428 -91 1123 -41 
Q 819 9 494 109 
L 494 744 
Q 775 591 1075 516 
Q 1375 441 1709 441 
Q 2250 441 2565 725 
Q 2881 1009 2881 1497 
Q 2881 1984 2565 2268 
Q 2250 2553 1709 2553 
Q 1456 2553 1204 2497 
Q 953 2441 691 2322 
L 691 4666 
z
" transform="scale(0.015625)"/>
       </defs>
       <use xlink:href="#DejaVuSans-35"/>
       <use xlink:href="#DejaVuSans-30" x="63.623047"/>
       <use xlink:href="#DejaVuSans-30" x="127.246094"/>
       <use xlink:href="#DejaVuSans-2c" x="190.869141"/>
       <use xlink:href="#DejaVuSans-30" x="222.65625"/>
       <use xlink:href="#DejaVuSans-30" x="286.279297"/>
       <use xlink:href="#DejaVuSans-30" x="349.902344"/>
       <use xlink:href="#DejaVuSans-20" x="413.525391"/>
       <use xlink:href="#DejaVuSans-52" x="445.3125"/>
       <use xlink:href="#DejaVuSans-6c" x="514.794922"/>
       <use xlink:href="#DejaVuSans-73" x="542.578125"/>
      </g>
     </g>
    </g>
    <g id="text_15">
     <!-- Price (Rials) -->
     <g transform="translate(21.307813 224.758003) rotate(-90) scale(0.14 -0.14)">
      <defs>
       <path id="DejaVuSans-50" d="M 1259 4147 
L 1259 2394 
L 2053 2394 
Q 2494 2394 2734 2622 
Q 2975 2850 2975 3272 
Q 2975 3691 2734 3919 
Q 2494 4147 2053 4147 
L 1259 4147 
z
M 628 4666 
L 2053 4666 
Q 2838 4666 3239 4311 
Q 3641 3956 3641 3272 
Q 3641 2581 3239 2228 
Q 2838 1875 2053 1875 
L 1259 1875 
L 1259 0 
L 628 0 
L 628 4666 
z
" transform="scale(0.015625)"/>
       <path id="DejaVuSans-72" d="M 2631 2963 
Q 2534 3019 2420 3045 
Q 2306 3072 2169 3072 
Q 1681 3072 1420 2755 
Q 1159 2438 1159 1844 
L 1159 0 
L 581 0 
L 581 3500 
L 1159 3500 
L 1159 2956 
Q 1341 3275 1631 3429 
Q 1922 3584 2338 3584 
Q 2397 3584 2469 3576 
Q 2541 3569 2628 3553 
L 2631 2963 
z
" transform="scale(0.015625)"/>
       <path id="DejaVuSans-69" d="M 603 3500 
L 1178 3500 
L 1178 0 
L 603 0 
L 603 3500 
z
M 603 4863 
L 1178 4863 
L 1178 4134 
L 603 4134 
L 603 4863 
z
" transform="scale(0.015625)"/>
       <path id="DejaVuSans-63" d="M 3122 3366 
L 3122 2828 
Q 2878 2963 2633 3030 
Q 2388 3097 2138 3097 
Q 1578 3097 1268 2742 
Q 959 2388 959 1747 
Q 959 1106 1268 751 
Q 1578 397 2138 397 
Q 2388 397 2633 464 
Q 2878 531 3122 666 
L 3122 134 
Q 2881 22 2623 -34 
Q 2366 -91 2075 -91 
Q 1284 -91 818 406 
Q 353 903 353 1747 
Q 353 2603 823 3093 
Q 1294 3584 2113 3584 
Q 2378 3584 2631 3529 
Q 2884 3475 3122 3366 
z
" transform="scale(0.015625)"/>
       <path id="DejaVuSans-28" d="M 1984 4856 
Q 1566 4138 1362 3434 
Q 1159 2731 1159 2009 
Q 1159 1288 1364 580 
Q 1569 -128 1984 -844 
L 1484 -844 
Q 1016 -109 783 600 
Q 550 1309 550 2009 
Q 550 2706 781 3412 
Q 1013 4119 1484 4856 
L 1984 4856 
z
" transform="scale(0.015625)"/>
       <path id="DejaVuSans-29" d="M 513 4856 
L 1013 4856 
Q 1481 4119 1714 3412 
Q 1947 2706 1947 2009 
Q 1947 1309 1714 600 
Q 1481 -109 1013 -844 
L 513 -844 
Q 928 -128 1133 580 
Q 1338 1288 1338 2009 
Q 1338 2731 1133 3434 
Q 928 4138 513 4856 
z
" transform="scale(0.015625)"/>
      </defs>
      <use xlink:href="#DejaVuSans-50"/>
      <use xlink:href="#DejaVuSans-72" x="58.552734"/>
      <use xlink:href="#DejaVuSans-69" x="99.666016"/>
      <use xlink:href="#DejaVuSans-63" x="127.449219"/>
      <use xlink:href="#DejaVuSans-65" x="182.429688"/>
      <use xlink:href="#DejaVuSans-20" x="243.953125"/>
      <use xlink:href="#DejaVuSans-28" x="275.740234"/>
      <use xlink:href="#DejaVuSans-52" x="314.753906"/>
      <use xlink:href="#DejaVuSans-69" x="384.236328"/>
      <use xlink:href="#DejaVuSans-61" x="412.019531"/>
      <use xlink:href="#DejaVuSans-6c" x="473.298828"/>
      <use xlink:href="#DejaVuSans-73" x="501.082031"/>
      <use xlink:href="#DejaVuSans-29" x="553.181641"/>
     </g>
    </g>
   </g>
   <g id="line2d_20">
    <path d="M 132.936517 324.016614 
L 133.184054 324.200222 
L 134.174202 324.042844 
L 134.669277 324.147763 
L 135.535656 323.817269 
L 135.783194 323.177265 
L 135.906962 323.255954 
L 136.030731 323.73858 
L 136.278268 323.675629 
L 136.525805 323.203494 
L 136.773342 323.229724 
L 136.897111 323.219232 
L 137.268416 322.862509 
L 137.392185 322.075618 
L 137.639722 322.914968 
L 137.763491 322.820541 
L 138.011028 322.825787 
L 138.258565 322.337915 
L 139.124945 322.337915 
L 139.743788 321.236268 
L 139.991325 320.187081 
L 140.238862 321.236268 
L 140.362631 322.285456 
L 140.857705 321.603484 
L 141.105242 321.603484 
L 141.476548 321.89201 
L 141.724085 321.341187 
L 142.466696 321.026431 
L 142.590465 321.236268 
L 142.838002 320.973972 
L 142.961771 320.921512 
L 143.456845 321.026431 
L 143.828151 321.052661 
L 144.199456 321.07889 
L 144.446993 321.498565 
L 144.694531 321.10512 
L 144.942068 321.10512 
L 145.065836 321.236268 
L 145.189605 321.183809 
L 145.437142 321.314957 
L 145.56091 321.236268 
L 145.932216 321.393647 
L 146.179753 321.341187 
L 146.42729 321.498565 
L 146.674828 321.10512 
L 146.798596 321.157579 
L 147.788745 321.236268 
L 148.16005 321.13135 
L 149.521505 321.236268 
L 149.645273 321.419876 
L 149.89281 321.320203 
L 150.140348 321.341187 
L 150.264116 322.128078 
L 150.511653 321.760862 
L 150.75919 321.666435 
L 151.254265 321.871027 
L 151.378033 321.981191 
L 151.62557 322.033651 
L 151.873107 322.469063 
L 151.996876 322.107094 
L 153.35833 322.710376 
L 153.729636 322.941198 
L 153.977173 322.44808 
L 154.100942 322.610704 
L 154.22471 322.469063 
L 154.719785 322.364145 
L 154.967322 322.437588 
L 155.09109 321.970699 
L 155.338627 321.933978 
L 155.462396 322.180537 
L 156.205007 321.881519 
L 156.700082 321.91824 
L 157.195156 321.650697 
L 157.442693 321.813321 
L 157.566462 321.970699 
L 157.69023 321.865781 
L 158.309073 321.708403 
L 159.299222 321.026431 
L 159.42299 320.632986 
L 159.670527 320.74315 
L 159.918064 321.010693 
L 160.041833 320.837577 
L 160.536907 320.994955 
L 160.660676 321.183809 
L 161.403287 321.157579 
L 161.527056 321.225777 
L 161.650824 321.13135 
L 162.02213 321.183809 
L 162.640973 321.126104 
L 163.631121 320.674953 
L 163.75489 320.612002 
L 164.002427 320.669707 
L 164.126196 320.480854 
L 164.373733 319.67298 
L 164.497501 320.26577 
L 165.116344 320.029703 
L 165.363881 320.15036 
L 165.48765 320.050687 
L 166.106493 320.034949 
L 166.35403 319.856587 
L 166.601567 319.693963 
L 166.725336 319.804128 
L 166.972873 319.693963 
L 167.467947 319.767406 
L 167.591716 319.877571 
L 168.08679 319.552323 
L 168.334327 319.127402 
L 168.581864 317.773951 
L 168.705633 318.219855 
L 168.95317 318.660514 
L 169.448244 318.125429 
L 169.695781 318.466414 
L 170.190856 318.214609 
L 170.68593 317.091979 
L 171.057235 315.570658 
L 171.304773 312.265718 
L 171.428541 313.367365 
L 171.55231 315.465739 
L 171.799847 315.308361 
L 171.923615 315.465739 
L 172.047384 313.682121 
L 172.294921 313.891958 
L 172.789995 313.367365 
L 173.037533 312.318178 
L 173.161301 313.708351 
L 173.28507 312.685393 
L 173.532607 312.318178 
L 173.656375 312.632934 
L 173.780144 312.318178 
L 173.903913 314.049336 
L 174.027681 313.367365 
L 174.275218 313.367365 
L 174.522755 313.944418 
L 174.646524 313.682121 
L 174.894061 313.944418 
L 175.265367 313.944418 
L 175.389135 315.728036 
L 175.512904 315.728036 
L 175.636673 314.416552 
L 175.88421 314.521471 
L 176.007978 314.521471 
L 176.255515 315.098524 
L 176.379284 315.203442 
L 176.626821 315.570658 
L 176.874358 315.570658 
L 176.998127 315.780495 
L 177.369432 317.301817 
L 177.61697 315.990333 
L 178.112044 316.042792 
L 178.235812 316.514926 
L 178.359581 315.990333 
L 178.48335 316.147711 
L 178.730887 315.728036 
L 179.102192 315.937873 
L 179.34973 315.832955 
L 179.473498 315.832955 
L 179.597267 315.203442 
L 179.721035 315.990333 
L 179.968572 315.41328 
L 180.092341 315.491969 
L 180.21611 315.36082 
L 180.463647 315.623117 
L 180.711184 315.292623 
L 180.834952 314.888686 
L 180.958721 315.019835 
L 181.08249 314.941145 
L 181.453795 314.206714 
L 181.577564 313.724088 
L 181.701332 313.724088 
L 181.948869 314.101796 
L 182.196407 314.364093 
L 182.443944 314.206714 
L 183.310324 314.232944 
L 183.557861 313.970647 
L 183.681629 313.996877 
L 184.548009 313.865729 
L 184.795547 313.682121 
L 185.043084 312.764082 
L 185.166852 312.218505 
L 185.414389 312.711623 
L 185.661927 312.580474 
L 185.785695 312.045389 
L 186.033232 312.003421 
L 186.280769 310.796856 
L 186.652075 311.216531 
L 186.899612 311.006694 
L 187.023381 311.714895 
L 187.147149 311.164072 
L 187.394686 311.006694 
L 187.889761 312.055881 
L 188.013529 311.531287 
L 188.261066 311.636206 
L 188.384835 311.898503 
L 188.632372 311.662436 
L 188.879909 311.924732 
L 189.251215 311.924732 
L 189.498752 311.452598 
L 189.746289 311.924732 
L 189.993826 312.08211 
L 190.241364 313.865729 
L 190.488901 312.370637 
L 190.612669 312.475556 
L 190.983975 312.97392 
L 191.107744 312.790312 
L 191.726586 313.724088 
L 191.850355 313.314905 
L 191.974123 313.341135 
L 194.325726 312.790312 
L 194.449495 312.13457 
L 194.573263 312.632934 
L 194.697032 312.632934 
L 194.944569 312.816541 
L 195.439643 312.816541 
L 195.687181 312.711623 
L 196.429792 312.528015 
L 196.553561 312.10834 
L 196.924866 312.396867 
L 197.41994 312.475556 
L 197.543709 312.554245 
L 197.791246 312.528015 
L 197.915015 312.318178 
L 198.162552 312.528015 
L 198.410089 312.659163 
L 198.657626 313.026379 
L 199.028932 312.711623 
L 199.1527 312.816541 
L 199.276469 312.764082 
L 199.524006 312.816541 
L 199.771543 313.000149 
L 199.895312 312.895231 
L 200.01908 312.501785 
L 200.142849 312.606704 
L 200.390386 312.475556 
L 200.761692 311.872273 
L 201.009229 312.213259 
L 201.256766 312.08211 
L 201.504303 312.13457 
L 202.123146 311.950962 
L 202.494452 312.396867 
L 202.61822 312.08211 
L 202.741989 312.1608 
L 202.989526 312.94769 
L 203.113295 312.790312 
L 203.360832 313.105068 
L 203.4846 313.367365 
L 203.608369 313.891958 
L 203.855906 314.416552 
L 203.979675 314.993605 
L 204.227212 313.839499 
L 204.35098 313.918188 
L 204.474749 313.577202 
L 204.722286 313.78704 
L 204.969823 313.419824 
L 205.21736 313.577202 
L 205.341129 313.550972 
L 205.712435 313.918188 
L 205.836203 313.708351 
L 206.08374 313.891958 
L 206.207509 313.813269 
L 206.95012 314.337863 
L 207.321426 314.941145 
L 207.445194 314.862456 
L 207.568963 314.626389 
L 207.692732 314.836227 
L 207.8165 314.60016 
L 208.187806 314.57393 
L 208.435343 314.57393 
L 208.806649 314.521471 
L 209.054186 313.970647 
L 209.425492 314.469011 
L 209.54926 314.285404 
L 209.673029 314.337863 
L 210.168103 314.285404 
L 210.41564 314.442782 
L 210.539409 314.416552 
L 211.405789 314.836227 
L 211.900863 314.809997 
L 212.024632 314.5477 
L 212.1484 313.891958 
L 212.272169 314.206714 
L 212.519706 314.049336 
L 212.643474 314.206714 
L 213.138549 313.78704 
L 213.386086 313.996877 
L 213.633623 313.970647 
L 213.88116 314.521471 
L 214.376234 314.57393 
L 214.623771 315.150983 
L 214.74754 315.046064 
L 214.871309 315.046064 
L 215.118846 315.990333 
L 215.366383 315.806725 
L 215.490151 315.806725 
L 215.61392 315.098524 
L 215.737689 315.203442 
L 215.985226 315.255902 
L 216.108994 315.124753 
L 216.232763 315.282131 
L 216.4803 315.177213 
L 216.604069 315.282131 
L 216.975374 315.177213 
L 217.34668 315.282131 
L 217.717986 315.282131 
L 217.841754 315.38705 
L 218.089291 315.282131 
L 218.336828 315.229672 
L 218.831903 315.491969 
L 219.07944 315.41328 
L 220.564663 315.308361 
L 220.688431 315.41328 
L 220.935968 315.38705 
L 221.183506 315.491969 
L 221.307274 315.334591 
L 221.554811 315.371312 
L 222.916265 315.439509 
L 223.163803 315.911644 
L 223.41134 315.518198 
L 223.535108 315.665085 
L 226.505554 315.69656 
L 227.619471 315.429018 
L 228.362082 315.570658 
L 228.733388 315.570658 
L 229.104694 315.575904 
L 229.228462 315.69656 
L 229.599768 315.691314 
L 229.971074 315.801479 
L 230.094842 316.053284 
L 230.34238 315.72279 
L 230.466148 315.780495 
L 230.961222 315.733282 
L 232.198908 315.680822 
L 233.931668 315.712298 
L 234.302974 315.675576 
L 234.550511 315.518198 
L 234.674279 315.52869 
L 235.293122 314.904424 
L 235.540659 315.19295 
L 235.788197 315.224426 
L 235.911965 315.434263 
L 236.159502 315.093278 
L 236.530808 315.276885 
L 236.654577 315.234918 
L 236.778345 315.423772 
L 236.902114 315.36082 
L 237.149651 315.465739 
L 237.397188 315.376558 
L 239.129948 315.145737 
L 239.501254 315.240164 
L 239.996328 315.040818 
L 240.120096 315.05131 
L 240.367634 314.830981 
L 240.491402 314.783767 
L 240.615171 314.521471 
L 240.738939 314.647373 
L 241.357782 314.206714 
L 241.481551 313.808023 
L 241.729088 314.133271 
L 241.852856 314.164747 
L 242.100394 313.708351 
L 242.224162 313.986385 
L 242.719236 313.823761 
L 242.843005 313.813269 
L 242.966773 314.007369 
L 243.090542 313.818515 
L 244.204459 314.222452 
L 244.328228 314.180485 
L 244.575765 313.897204 
L 244.823302 313.986385 
L 245.070839 313.944418 
L 246.308525 314.017861 
L 246.803599 313.981139 
L 247.174905 314.091304 
L 247.422442 314.248682 
L 247.917516 314.190977 
L 248.288822 314.526717 
L 248.41259 314.395568 
L 248.536359 314.453273 
L 248.783896 314.26442 
L 249.27897 314.589668 
L 249.650276 314.579176 
L 249.897813 314.846719 
L 250.14535 314.846719 
L 250.392888 314.799505 
L 250.516656 314.804751 
L 250.764193 314.967375 
L 250.887962 314.804751 
L 251.383036 314.90967 
L 251.630573 314.752292 
L 251.87811 314.851965 
L 252.249416 314.647373 
L 252.496953 314.778521 
L 253.487102 314.789013 
L 254.105945 314.789013 
L 254.47725 314.731308 
L 255.467399 314.799505 
L 255.962473 314.930654 
L 256.21001 314.914916 
L 256.581316 314.988359 
L 256.705085 314.830981 
L 256.828853 314.857211 
L 257.07639 314.799505 
L 257.819002 314.689341 
L 258.066539 314.563438 
L 258.314076 314.552946 
L 258.437844 314.642127 
L 258.932919 314.526717 
L 259.923067 314.411306 
L 260.170604 314.531962 
L 260.418142 314.568684 
L 260.789447 314.416552 
L 260.913216 314.416552 
L 261.160753 314.080812 
L 261.284522 314.232944 
L 261.779596 314.190977 
L 262.769744 314.190977 
L 263.14105 314.138517 
L 263.636124 314.217206 
L 264.626273 314.327371 
L 264.87381 314.180485 
L 265.121347 314.180485 
L 265.492653 314.138517 
L 267.844256 314.159501 
L 268.091793 314.206714 
L 268.710636 313.76081 
L 268.958173 313.047363 
L 269.20571 313.587694 
L 269.577016 313.535235 
L 269.700784 313.666383 
L 269.948321 313.236216 
L 270.07209 313.362119 
L 270.319627 313.251954 
L 270.567164 313.241462 
L 270.690933 312.895231 
L 270.814701 313.314905 
L 271.062238 312.879493 
L 271.557313 312.80605 
L 271.80485 312.548999 
L 271.928618 312.459818 
L 272.176156 312.63818 
L 272.423693 312.564737 
L 272.547461 312.58572 
L 272.794998 312.837525 
L 273.413841 312.77982 
L 273.661378 312.774574 
L 274.032684 312.874247 
L 274.899064 313.126052 
L 275.146601 312.769328 
L 275.394138 313.047363 
L 275.889213 313.026379 
L 276.260518 313.073592 
L 277.126898 313.141789 
L 277.621973 313.320151 
L 277.86951 313.209987 
L 278.612121 313.251954 
L 278.73589 313.356873 
L 278.983427 313.293922 
L 279.354732 313.251954 
L 279.60227 313.189003 
L 280.344881 313.236216 
L 280.963724 313.372611 
L 281.211261 313.388348 
L 281.33503 313.4513 
L 281.582567 313.766056 
L 281.706335 313.897204 
L 281.830104 314.311633 
L 282.077641 313.991631 
L 282.20141 313.613924 
L 282.448947 313.692613 
L 283.06779 313.577202 
L 283.315327 313.404086 
L 283.562864 313.912942 
L 283.810401 313.766056 
L 283.93417 313.855237 
L 284.057938 313.73458 
L 284.305475 314.479503 
L 284.553012 313.975893 
L 284.676781 313.965401 
L 284.800549 313.818515 
L 285.048087 313.944418 
L 285.295624 313.61917 
L 285.543161 313.692613 
L 285.914467 313.640153 
L 286.533309 313.687367 
L 287.523458 313.703105 
L 288.018532 313.687367 
L 288.266069 313.750318 
L 288.761144 313.781794 
L 290.741441 313.92868 
L 291.484052 313.792286 
L 291.731589 313.823761 
L 293.216812 313.933926 
L 293.588118 313.970647 
L 294.206961 314.091304 
L 295.815952 313.918188 
L 296.063489 314.164747 
L 296.558563 314.159501 
L 296.682332 314.154255 
L 296.929869 314.332617 
L 298.291323 314.117534 
L 298.415092 313.918188 
L 298.662629 313.90245 
L 300.147852 313.687367 
L 300.890463 313.682121 
L 302.87076 313.488021 
L 303.118298 313.377857 
L 303.489603 313.456546 
L 303.73714 313.42507 
L 304.108446 313.446054 
L 304.479752 313.377857 
L 304.60352 313.262446 
L 304.851057 313.404086 
L 305.4699 313.514251 
L 305.717437 313.446054 
L 306.33628 313.409332 
L 306.583817 313.320151 
L 307.573966 313.377857 
L 323.66388 313.4513 
L 323.911417 313.042117 
L 324.035186 312.994903 
L 324.406491 313.105068 
L 325.149103 312.92146 
L 325.39664 313.078838 
L 325.767945 313.131298 
L 326.386788 313.325397 
L 326.634325 313.173265 
L 327.253168 313.215233 
L 327.500705 313.236216 
L 328.738391 313.021133 
L 328.985928 312.774574 
L 329.233465 312.92146 
L 330.223614 313.026379 
L 330.842457 313.021133 
L 331.4613 313.099822 
L 331.708837 313.0631 
L 334.307977 313.110314 
L 334.92682 313.162773 
L 335.545662 313.162773 
L 336.659579 313.036871 
L 337.402191 313.015887 
L 337.649728 313.078838 
L 338.639877 313.052609 
L 339.258719 313.078838 
L 340.372637 312.743098 
L 340.496405 312.690639 
L 340.743942 312.758836 
L 340.867711 312.952936 
L 341.115248 312.910968 
L 341.857859 312.837525 
L 342.105396 312.837525 
L 342.971776 312.774574 
L 343.095545 312.827033 
L 344.704536 312.680147 
L 344.828305 312.75359 
L 345.694685 312.643426 
L 345.818454 312.695885 
L 345.942222 312.569982 
L 346.065991 312.680147 
L 346.313528 312.617196 
L 346.561065 312.606704 
L 346.808602 312.77982 
L 347.179908 312.622442 
L 354.853559 312.344407 
L 354.977328 312.486048 
L 355.224865 312.223751 
L 355.719939 312.218505 
L 355.967476 312.197521 
L 356.586319 312.187029 
L 356.957625 312.019159 
L 357.32893 312.029651 
L 357.824005 311.872273 
L 358.442847 311.914241 
L 358.690385 311.699157 
L 358.937922 311.552271 
L 359.309227 310.896529 
L 359.804302 311.258499 
L 359.92807 310.770627 
L 360.175607 310.807348 
L 360.299376 310.870299 
L 360.423145 310.749643 
L 360.79445 310.79161 
L 360.918219 310.912267 
L 361.289524 310.597511 
L 361.908367 310.64997 
L 362.155904 310.298492 
L 362.403442 310.282754 
L 362.650979 309.842096 
L 362.774747 309.585045 
L 363.269822 310.492592 
L 363.39359 311.085383 
L 363.641127 310.670954 
L 363.888664 310.728659 
L 364.136202 310.723413 
L 364.383739 310.403411 
L 364.755044 310.329968 
L 365.250119 310.670954 
L 365.497656 311.164072 
L 365.621424 311.143088 
L 365.868962 311.227023 
L 366.240267 310.98571 
L 366.735341 310.95948 
L 367.354184 311.143088 
L 367.849259 311.022431 
L 368.220564 311.132596 
L 368.715639 311.195547 
L 369.829556 311.373909 
L 371.314779 311.473582 
L 371.562316 311.667682 
L 371.686084 311.536533 
L 372.428696 311.29522 
L 372.552464 311.494566 
L 373.171307 311.541779 
L 377.750744 311.468336 
L 378.245818 311.442106 
L 378.864661 311.46309 
L 379.483504 311.484074 
L 380.72119 311.583747 
L 380.844958 311.609976 
L 381.092495 311.541779 
L 381.958875 311.615222 
L 384.681784 311.562763 
L 385.05309 311.510303 
L 385.548164 311.43686 
L 385.91947 311.352925 
L 386.290775 311.331942 
L 389.261221 311.232269 
L 389.880064 311.132596 
L 391.612824 311.164072 
L 393.098046 310.938496 
L 393.716889 310.796856 
L 393.964426 310.838824 
L 394.211964 310.723413 
L 394.830806 310.670954 
L 395.078344 310.691937 
L 396.316029 310.786364 
L 396.811104 310.686692 
L 397.553715 310.550297 
L 398.048789 310.335214 
L 398.172558 310.00472 
L 398.420095 310.135868 
L 398.543863 310.130622 
L 398.915169 310.183082 
L 400.276623 310.051933 
L 400.647929 309.857834 
L 400.895466 309.947015 
L 401.143003 309.936523 
L 401.885615 309.831604 
L 402.380689 309.700456 
L 402.504458 309.506356 
L 402.875763 309.69521 
L 403.494606 309.731931 
L 403.742143 309.569307 
L 404.85606 309.406683 
L 405.846209 309.133895 
L 406.341283 309.112911 
L 406.836358 309.270289 
L 406.960126 309.186354 
L 407.207663 309.202092 
L 407.950275 309.228321 
L 408.32158 308.987008 
L 408.445349 308.708974 
L 408.569117 308.708974 
L 408.816655 308.257823 
L 408.940423 308.52012 
L 409.311729 308.367988 
L 409.435497 308.147659 
L 409.559266 308.299791 
L 409.806803 308.04274 
L 410.301877 308.011264 
L 410.673183 307.817165 
L 411.044489 307.08798 
L 411.168257 307.182406 
L 411.415795 307.250604 
L 411.539563 307.423719 
L 411.7871 307.5129 
L 411.910869 307.240112 
L 412.034637 307.334539 
L 412.158406 307.245358 
L 412.282175 306.836175 
L 412.405943 306.825683 
L 412.777249 306.316827 
L 412.901017 306.673551 
L 413.024786 306.600108 
L 413.148554 307.360768 
L 413.272323 306.705026 
L 413.643629 306.406008 
L 413.891166 305.619118 
L 414.138703 306.348303 
L 414.38624 306.563386 
L 414.633777 307.20339 
L 415.005083 307.633557 
L 415.623926 307.743722 
L 415.995232 307.759459 
L 416.242769 306.180433 
L 416.737843 306.096498 
L 417.109149 306.007317 
L 417.232917 305.88666 
L 417.356686 305.93912 
L 417.604223 305.766004 
L 417.727992 305.682069 
L 417.975529 305.923382 
L 418.223066 305.503707 
L 418.71814 305.388296 
L 418.965677 304.433536 
L 419.213214 304.732554 
L 419.336983 304.7378 
L 419.460751 304.438782 
L 419.58452 304.554193 
L 419.708289 304.821735 
L 419.832057 304.554193 
L 420.079594 304.680095 
L 420.4509 304.076812 
L 420.698437 300.436133 
L 420.945974 309.170616 
L 421.812354 301.868273 
L 421.936123 301.9627 
L 422.18366 301.65319 
L 422.678734 302.754837 
L 422.678734 302.104341 
L 422.802503 301.642698 
L 423.05004 301.810568 
L 423.05004 301.244007 
L 423.173808 300.493838 
L 423.297577 301.285975 
L 423.421346 299.911539 
L 423.545114 299.916785 
L 423.668883 299.114157 
L 423.792651 299.119403 
L 423.91642 297.718738 
L 424.040188 297.891854 
L 424.163957 300.131869 
L 424.411494 296.732502 
L 424.659031 296.108236 
L 425.030337 297.996773 
L 425.154106 297.556114 
L 425.277874 298.930549 
L 425.401643 298.290545 
L 425.525411 298.343005 
L 425.64918 299.003993 
L 425.772948 298.673499 
L 426.020486 297.697754 
L 426.268023 297.92333 
L 426.51556 297.645295 
L 426.886866 298.196118 
L 427.134403 297.293817 
L 427.258171 297.094472 
L 427.38194 297.682017 
L 427.505708 297.424966 
L 427.629477 297.498409 
L 427.753246 296.994799 
L 428.000783 297.089226 
L 428.124551 297.424966 
L 428.24832 295.872169 
L 428.372088 296.706273 
L 428.619625 294.298388 
L 428.743394 294.440028 
L 428.867163 295.693807 
L 429.238468 294.319372 
L 429.362237 294.198715 
L 429.733543 291.906241 
L 429.98108 291.827552 
L 429.98108 288.323267 
L 430.104848 285.537675 
L 430.352385 289.807867 
L 430.476154 289.372454 
L 430.599923 288.039987 
L 430.723691 288.039987 
L 430.84746 289.367208 
L 430.971228 287.358015 
L 431.094997 287.499655 
L 431.466303 290.038688 
L 431.590071 289.04196 
L 431.837608 289.309503 
L 431.961377 289.519341 
L 432.085145 290.363936 
L 432.332683 290.337707 
L 432.332683 290.201312 
L 432.456451 290.169837 
L 432.703988 288.847861 
L 432.827757 289.660981 
L 432.951525 288.213103 
L 433.075294 288.533105 
L 433.199063 288.207857 
L 433.322831 288.454416 
L 433.694137 282.049128 
L 433.817905 281.860274 
L 433.941674 283.177004 
L 434.31298 280.349445 
L 434.436748 270.088394 
L 434.560517 271.032663 
L 434.684285 275.906137 
L 434.808054 275.607119 
L 434.931822 271.945456 
L 435.17936 277.96779 
L 435.550665 284.116027 
L 435.674434 277.411721 
L 435.798202 276.981554 
L 435.921971 273.797271 
L 436.169508 278.298284 
L 436.293277 275.460233 
L 436.540814 276.105483 
L 436.664582 275.02482 
L 436.788351 275.009082 
L 436.91212 277.01303 
L 437.035888 277.144178 
L 437.283425 275.680562 
L 437.407194 275.879907 
L 437.530962 276.074007 
L 437.654731 277.280572 
L 438.149805 273.178251 
L 438.273574 273.440547 
L 438.397342 273.314645 
L 438.521111 273.51399 
L 438.644879 272.506771 
L 438.768648 268.372973 
L 439.016185 264.081798 
L 439.016185 259.418161 
L 439.139954 259.391931 
L 439.263722 260.325708 
L 439.511259 260.661448 
L 439.511259 263.929666 
L 439.635028 263.200481 
L 439.758797 258.725697 
L 439.882565 260.210297 
L 440.130102 259.01947 
L 447.927522 269.091667 
L 448.175059 269.196585 
L 448.298828 267.79592 
L 448.546365 263.845731 
L 448.793902 264.2077 
L 449.041439 264.449013 
L 449.536513 267.649034 
L 449.660282 272.212998 
L 449.907819 271.620208 
L 450.031588 267.675264 
L 450.155356 271.2425 
L 450.402893 271.651683 
L 450.526662 271.908734 
L 450.774199 270.786104 
L 451.021736 274.599899 
L 451.145505 274.447767 
L 451.269273 280.26551 
L 451.393042 278.062217 
L 451.640579 278.035987 
L 451.764348 279.006485 
L 452.011885 279.058945 
L 452.135653 278.796648 
L 452.259422 278.901566 
L 452.506959 278.796648 
L 452.754496 278.219595 
L 453.002033 272.449065 
L 453.125802 274.809737 
L 453.373339 277.170408 
L 453.620876 274.54744 
L 453.868413 276.383517 
L 453.992182 275.596627 
L 454.239719 275.649086 
L 454.363488 275.858924 
L 454.611025 274.022846 
L 454.734793 274.127765 
L 454.858562 274.075306 
L 455.229868 271.399878 
L 455.477405 272.186769 
L 455.724942 270.40315 
L 455.972479 271.137581 
L 456.096248 271.137581 
L 456.343785 270.088394 
L 456.591322 270.875285 
L 457.333933 268.540843 
L 457.457702 269.039207 
L 457.829008 273.498253 
L 458.076545 269.563801 
L 458.200313 269.039207 
L 458.324082 270.114624 
L 458.695388 269.773638 
L 459.066693 268.619532 
L 459.190462 269.039207 
L 459.437999 267.727723 
L 459.561767 266.416239 
L 459.685536 263.530975 
L 459.809305 264.055568 
L 459.933073 263.163759 
L 460.056842 263.163759 
L 460.304379 265.629349 
L 460.428147 259.596523 
L 460.675685 261.4326 
L 460.923222 261.957194 
L 461.170759 260.64571 
L 461.418296 264.54344 
L 461.542065 265.115247 
L 461.665833 262.198507 
L 461.789602 262.812281 
L 462.037139 262.214245 
L 462.408445 263.809009 
L 462.532213 263.767042 
L 462.655982 262.471296 
L 463.151056 263.58868 
L 463.274825 263.56245 
L 464.141205 263.263432 
L 464.264973 263.310645 
L 464.388742 262.014899 
L 464.760047 261.957194 
L 465.502659 262.009653 
L 465.750196 259.386685 
L 465.873964 256.842406 
L 465.997733 259.071929 
L 466.121502 259.171602 
L 466.369039 259.85882 
L 466.492807 260.64571 
L 466.616576 259.386685 
L 466.864113 260.902761 
L 466.987882 260.493578 
L 467.235419 260.1421 
L 467.606724 258.8516 
L 467.854262 258.746681 
L 468.101799 258.568319 
L 468.225567 256.989293 
L 468.349336 256.968309 
L 468.473104 257.487657 
L 468.596873 256.448961 
L 468.720642 256.496175 
L 468.968179 255.158461 
L 469.091947 253.852223 
L 469.215716 254.08829 
L 469.587021 250.678432 
L 469.958327 254.350587 
L 470.082096 253.374843 
L 470.329633 253.338121 
L 470.453401 254.366325 
L 470.824707 255.137477 
L 470.948476 259.071929 
L 471.072244 259.087667 
L 471.319781 257.519132 
L 471.567319 257.98602 
L 471.691087 258.547336 
L 471.938624 259.071929 
L 472.062393 260.908007 
L 472.186161 260.189313 
L 472.433699 260.121116 
L 472.681236 262.492279 
L 473.300079 262.534247 
L 473.423847 264.5959 
L 473.671384 263.593926 
L 474.166459 263.342121 
L 474.290227 260.414889 
L 474.661533 262.508017 
L 474.785301 261.957194 
L 475.032838 263.006381 
L 475.156607 263.006381 
L 475.280376 262.014899 
L 475.527913 263.321137 
L 475.651681 263.268678 
L 476.022987 263.793271 
L 476.146756 264.580162 
L 476.270524 264.055568 
L 476.394293 264.344095 
L 476.518061 264.317865 
L 476.765598 263.321137 
L 476.889367 263.541466 
L 477.136904 264.354586 
L 477.384441 264.338849 
L 477.755747 265.629349 
L 478.127053 271.457584 
L 478.745896 268.77691 
L 478.869664 266.678536 
L 478.993433 267.239851 
L 479.117201 268.514614 
L 479.488507 267.465426 
L 479.612276 268.031987 
L 479.736044 267.99002 
L 479.983581 268.77691 
L 480.231118 268.29953 
L 480.478655 268.824124 
L 480.602424 268.556581 
L 480.849961 269.091667 
L 481.097498 269.301504 
L 481.221267 269.826098 
L 481.963878 269.826098 
L 482.087647 269.605768 
L 482.582721 270.350691 
L 482.830258 270.40315 
L 483.201564 272.973659 
L 483.325333 272.475295 
L 483.449101 272.449065 
L 483.820407 271.399878 
L 483.944175 272.197261 
L 484.067944 271.399878 
L 484.191713 271.704143 
L 484.315481 271.399878 
L 484.563018 271.457584 
L 484.686787 270.350691 
L 485.058092 270.366429 
L 485.181861 271.169057 
L 485.429398 271.399878 
L 485.553167 271.934964 
L 485.800704 271.399878 
L 485.924472 271.399878 
L 486.048241 271.137581 
L 486.295778 271.137581 
L 486.543315 271.683159 
L 486.914621 271.662175 
L 487.162158 271.137581 
L 487.285927 271.137581 
L 487.409695 270.875285 
L 487.657232 271.399878 
L 487.781001 271.174303 
L 488.028538 271.163811 
L 488.152307 271.415616 
L 489.018687 271.399878 
L 489.142455 271.662175 
L 489.266224 271.646437 
L 489.513761 271.389386 
L 489.885067 271.457584 
L 490.008835 271.641191 
L 490.132604 272.134309 
L 490.256372 272.160539 
L 490.627678 272.774313 
L 491.246521 272.70087 
L 491.741595 271.908734 
L 491.865364 271.976931 
L 492.112901 271.725126 
L 492.484207 271.656929 
L 492.979281 270.891023 
L 493.226818 268.766419 
L 493.350587 268.761173 
L 493.474355 267.465426 
L 493.721892 268.818878 
L 493.845661 269.33298 
L 494.093198 269.322488 
L 494.340735 267.974282 
L 494.464504 266.410993 
L 494.588272 266.961817 
L 494.712041 266.143451 
L 494.959578 265.377544 
L 495.083346 266.19591 
L 495.207115 265.414266 
L 495.330884 265.645087 
L 495.454652 264.611637 
L 495.578421 264.574916 
L 495.949726 263.305399 
L 496.197264 258.557827 
L 496.444801 263.525729 
L 496.816106 265.35656 
L 497.187412 263.520483 
L 497.311181 263.746058 
L 497.806255 263.064086 
L 498.425098 263.142775 
L 498.796404 263.268678 
L 499.043941 263.268678 
L 499.291478 261.275222 
L 499.539015 261.254238 
L 499.786552 260.986696 
L 499.910321 261.90998 
L 500.157858 262.728346 
L 500.281626 262.744084 
L 500.529163 262.990643 
L 500.652932 262.445066 
L 500.776701 262.481787 
L 501.148006 263.006381 
L 501.395543 263.25294 
L 501.519312 263.268678 
L 501.643081 263.006381 
L 502.014386 260.908007 
L 502.261923 260.897515 
L 502.756998 260.498824 
L 503.004535 260.965712 
L 503.375841 260.351937 
L 503.747146 260.367675 
L 503.870915 259.837836 
L 504.118452 259.323734 
L 504.242221 258.552581 
L 504.489758 258.552581 
L 504.737295 258.001758 
L 504.861063 256.716504 
L 505.108601 256.69552 
L 505.479906 253.799764 
L 505.603675 254.093536 
L 505.727443 253.558451 
L 505.97498 248.837108 
L 506.222518 253.049595 
L 506.470055 249.665966 
L 506.593823 250.757121 
L 506.717592 250.5263 
L 506.84136 252.540739 
L 507.088898 252.535493 
L 507.336435 251.449584 
L 507.460203 251.963686 
L 507.583972 253.27517 
L 507.70774 253.296154 
L 508.079046 253.547959 
L 508.326583 248.606287 
L 508.450352 253.023365 
L 510.30688 253.060087 
L 510.554417 248.34399 
L 510.678186 248.302023 
L 510.801955 248.8476 
L 510.925723 248.8476 
L 511.049492 249.319734 
L 511.915872 249.32498 
L 512.410946 251.155812 
L 512.534715 251.17155 
L 512.90602 249.875804 
L 513.153557 249.891541 
L 513.277326 249.314489 
L 513.401095 249.366948 
L 513.524863 249.629245 
L 513.648632 249.629245 
L 513.7724 249.366948 
L 514.391243 249.366948 
L 514.515012 248.784649 
L 514.63878 248.842354 
L 514.886317 248.296777 
L 515.133855 244.645606 
L 515.257623 244.121012 
L 515.381392 242.751823 
L 515.50516 242.788544 
L 515.752697 243.071825 
L 516.000234 240.973451 
L 516.124003 241.235747 
L 516.247772 240.396398 
L 516.990383 240.448857 
L 517.23792 241.702636 
L 517.609226 241.498044 
L 518.599374 242.34264 
L 518.723143 242.389853 
L 518.97068 238.088186 
L 519.341986 238.035727 
L 519.465754 237.406214 
L 519.589523 235.675055 
L 519.83706 234.940624 
L 520.332134 232.569461 
L 520.455903 228.398942 
L 520.70344 232.354378 
L 520.950977 232.36487 
L 521.074746 231.305191 
L 521.198514 231.257977 
L 521.446051 231.824539 
L 521.56982 231.782571 
L 521.941126 217.644774 
L 522.064894 216.569357 
L 522.188663 217.093951 
L 522.312431 214.73328 
L 522.4362 214.73328 
L 522.683737 214.528688 
L 522.931274 211.900474 
L 523.055043 211.879491 
L 523.30258 210.011937 
L 523.673886 210.048659 
L 523.797654 212.634905 
L 523.921423 223.913667 
L 524.16896 224.758263 
L 524.540266 224.737279 
L 524.664034 223.709076 
L 524.911571 223.667108 
L 525.90172 210.536531 
L 526.273026 216.831654 
L 526.396794 221.086108 
L 526.644331 216.831654 
L 526.7681 215.530662 
L 527.015637 215.52017 
L 527.139406 216.30706 
L 527.263174 213.437534 
L 527.386943 213.159499 
L 527.510711 213.731306 
L 527.63448 213.159499 
L 528.129554 213.264418 
L 528.253323 213.280155 
L 528.50086 210.011937 
L 528.872166 210.059151 
L 528.995934 209.749641 
L 529.36724 213.421796 
L 529.614777 213.421796 
L 529.738546 212.634905 
L 529.862314 212.661135 
L 529.986083 211.848015 
L 530.109851 211.863753 
L 530.23362 211.59621 
L 530.728694 207.441429 
L 530.852463 191.651162 
L 530.976231 191.672146 
L 531.1 190.628205 
L 531.347537 192.459036 
L 531.471305 187.999991 
L 531.595074 189.851806 
L 531.718843 188.498355 
L 531.842611 185.377023 
L 531.96638 185.382269 
L 532.461454 179.349443 
L 532.585223 181.683884 
L 532.83276 179.575018 
L 533.080297 181.961919 
L 533.204065 189.589509 
L 533.451603 178.022221 
L 533.575371 178.011729 
L 533.946677 174.056293 
L 534.070445 167.818876 
L 534.194214 171.748082 
L 534.441751 165.956569 
L 534.56552 164.886398 
L 534.936825 164.089015 
L 535.060594 169.088392 
L 535.184363 186.698999 
L 535.4319 177.104182 
L 535.679437 179.071408 
L 535.926974 184.390787 
L 536.050743 183.137008 
L 536.545817 190.234759 
L 536.669585 188.482617 
L 536.793354 183.047827 
L 537.040891 179.454361 
L 537.16466 192.946908 
L 537.535965 207.929301 
L 537.783502 189.043932 
L 537.907271 189.568526 
L 538.03104 190.339678 
L 538.278577 190.859026 
L 538.526114 195.344301 
L 538.649882 195.349547 
L 538.773651 196.792179 
L 538.89742 196.802671 
L 539.144957 195.045283 
L 539.268725 197.678742 
L 539.392494 197.196116 
L 539.640031 200.317448 
L 539.7638 201.329914 
L 540.011337 201.350897 
L 540.135105 202.410576 
L 540.506411 196.786933 
L 540.63018 197.600053 
L 540.877717 196.372504 
L 541.001485 196.93382 
L 541.249022 196.939065 
L 541.496559 194.46823 
L 541.744097 194.782986 
L 541.991634 196.409226 
L 542.115402 195.575122 
L 542.362939 195.847911 
L 542.734245 197.977761 
L 542.981782 197.348248 
L 543.229319 195.533155 
L 543.476857 196.325291 
L 543.600625 196.157421 
L 543.724394 196.194143 
L 543.848162 196.40398 
L 544.095699 196.37775 
L 544.467005 197.080706 
L 544.714542 195.323317 
L 544.838311 195.575122 
L 545.333385 200.83155 
L 545.580922 200.873517 
L 545.828459 205.547646 
L 546.447302 216.868376 
L 546.571071 211.848015 
L 547.066145 213.516223 
L 547.189914 210.725385 
L 547.313682 210.97719 
L 547.437451 208.380451 
L 547.561219 209.44013 
L 547.932525 205.715516 
L 548.427599 206.628309 
L 548.675136 206.586341 
L 548.922674 206.906343 
L 549.293979 201.649916 
L 549.541516 200.154824 
L 549.912822 200.191546 
L 550.036591 199.137113 
L 550.160359 199.158096 
L 550.407896 200.060397 
L 550.531665 203.973865 
L 550.655434 204.314851 
L 550.902971 200.994174 
L 551.274276 198.796127 
L 551.398045 201.602702 
L 551.521814 201.377127 
L 551.645582 203.008613 
L 551.769351 201.796802 
L 551.893119 201.833524 
L 552.264425 205.353546 
L 552.388193 203.617142 
L 552.511962 204.215178 
L 552.635731 204.031571 
L 553.007036 204.372556 
L 553.130805 205.7365 
L 553.254573 205.7365 
L 553.378342 204.834199 
L 553.625879 205.495187 
L 554.739796 201.33516 
L 554.863565 198.832848 
L 555.111102 198.722684 
L 555.234871 198.98498 
L 555.358639 198.953505 
L 555.729945 203.874193 
L 555.853713 203.176483 
L 555.977482 201.571227 
L 556.101251 202.877465 
L 556.225019 202.856481 
L 556.472556 204.314851 
L 556.720093 203.74829 
L 556.843862 204.828953 
L 556.96763 204.068292 
L 557.091399 205.369284 
L 557.338936 205.337809 
L 557.586473 206.261093 
L 557.710242 208.585043 
L 557.83401 208.611273 
L 557.957779 208.815864 
L 558.329085 208.768651 
L 558.576622 209.177834 
L 558.824159 209.335212 
L 559.071696 211.019157 
L 559.195465 216.6428 
L 559.319233 217.204115 
L 559.690539 222.885464 
L 559.938076 222.943169 
L 560.061845 222.476281 
L 560.185613 217.823136 
L 560.43315 214.822461 
L 560.680688 217.823136 
L 560.928225 215.530662 
L 560.928225 213.621141 
L 561.051993 214.644099 
L 561.175762 212.991629 
L 561.29953 214.853936 
L 561.423299 214.219178 
L 562.042142 213.642125 
L 562.16591 213.086056 
L 562.289679 209.77587 
L 562.660985 208.102417 
L 562.660985 208.102417 
L 562.784753 206.051256 
L 562.908522 208.417173 
L 563.156059 208.275533 
L 563.651133 207.425691 
L 563.774902 207.667004 
L 563.89867 204.545672 
L 564.022439 205.705024 
L 564.269976 206.481423 
L 564.393745 204.760756 
L 564.517513 205.447973 
L 564.76505 204.383048 
L 564.888819 203.050581 
L 565.136356 207.98176 
L 565.383893 204.781739 
L 565.507662 203.900422 
L 565.63143 204.362065 
L 565.755199 204.309605 
L 566.374042 200.238759 
L 566.49781 197.956777 
L 566.621579 199.263015 
L 566.869116 198.81711 
L 566.992885 199.263015 
L 567.116653 200.202038 
L 567.240422 199.483344 
L 567.36419 199.604001 
L 567.487959 199.955479 
L 567.735496 200.322694 
L 567.859264 200.060397 
L 567.983033 200.217775 
L 568.23057 202.132542 
L 568.354339 201.634178 
L 568.601876 201.4768 
L 568.849413 202.866973 
L 569.592024 201.214503 
L 569.96333 196.912836 
L 570.334636 196.230864 
L 570.458404 197.489889 
L 570.582173 197.332511 
L 570.705942 196.230864 
L 570.82971 196.807917 
L 571.201016 196.708244 
L 571.324784 196.440702 
L 571.448553 195.286596 
L 571.69609 191.614441 
L 571.819859 192.558709 
L 572.067396 193.135762 
L 572.191164 190.093119 
L 572.438701 190.093119 
L 572.933776 188.251796 
L 573.181313 186.106208 
L 573.305081 186.137684 
L 573.552619 184.847183 
L 573.800156 183.262911 
L 574.047693 189.22754 
L 574.171461 187.349495 
L 574.29523 189.379672 
L 574.418999 188.036712 
L 574.666536 189.400656 
L 574.914073 188.928521 
L 575.285379 185.224891 
L 575.532916 185.728501 
L 575.656684 188.24655 
L 575.780453 187.931794 
L 575.904221 186.169159 
L 576.02799 187.879334 
L 576.151759 187.223592 
L 576.399296 187.617038 
L 576.523064 187.12392 
L 576.89437 187.449168 
L 577.141907 185.990797 
L 577.389444 186.62031 
L 577.389444 185.990797 
L 577.884518 183.000614 
L 578.008287 181.846508 
L 578.255824 184.102261 
L 578.379593 183.603897 
L 579.369741 187.816383 
L 579.369741 189.180326 
L 579.49351 188.744914 
L 579.617278 189.106883 
L 579.864816 188.068188 
L 579.988584 188.608519 
L 580.112353 188.178353 
L 580.236121 187.029493 
L 580.35989 187.947531 
L 580.731196 186.39998 
L 580.978733 186.615064 
L 581.102501 186.536375 
L 581.22627 186.006535 
L 581.721344 186.546867 
L 581.845113 186.90359 
L 581.968881 186.410472 
L 582.09265 184.857675 
L 582.216418 186.148175 
L 582.463956 185.240629 
L 582.711493 184.191441 
L 582.835261 183.761275 
L 583.082798 182.093067 
L 583.330335 180.959945 
L 583.454104 181.573719 
L 583.577873 184.170458 
L 583.82541 184.474722 
L 583.949178 183.582913 
L 584.196715 183.913407 
L 584.69179 178.536323 
L 585.063095 183.215697 
L 585.186864 187.622283 
L 585.310633 178.441896 
L 585.434401 179.55928 
L 585.55817 191.572473 
L 585.681938 187.863597 
L 585.929475 184.448492 
L 586.177013 185.240629 
L 586.300781 185.298334 
L 586.795855 185.917354 
L 586.919624 185.927846 
L 587.167161 187.391462 
L 587.414698 187.375724 
L 587.662235 187.244576 
L 588.033541 187.984253 
L 588.15731 187.454414 
L 588.899921 187.527857 
L 589.02369 187.291789 
L 589.147458 187.527857 
L 589.642532 187.491135 
L 589.766301 189.615739 
L 589.89007 189.615739 
L 590.385144 190.449843 
L 590.632681 191.110831 
L 590.75645 191.310176 
L 590.880218 185.681287 
L 591.127755 187.186871 
L 591.251524 186.898344 
L 591.375292 188.068188 
L 591.499061 187.732448 
L 591.746598 186.809163 
L 591.994135 186.819655 
L 592.241672 184.427509 
L 592.365441 185.492434 
L 592.48921 185.046529 
L 592.612978 185.518663 
L 592.860515 184.700297 
L 592.984284 184.904889 
L 593.355589 188.225566 
L 593.479358 188.173107 
L 593.726895 192.889203 
L 593.850664 190.817058 
L 594.098201 194.504951 
L 594.221969 193.581667 
L 594.345738 193.618388 
L 594.593275 192.401331 
L 594.840812 189.720658 
L 595.583424 197.909564 
L 595.830961 194.615116 
L 595.954729 195.139709 
L 596.078498 194.053801 
L 596.573572 194.992823 
L 596.821109 197.054476 
L 596.944878 196.828901 
L 597.316184 198.045958 
L 597.563721 194.594132 
L 597.811258 196.40398 
L 598.058795 195.344301 
L 598.182564 192.62166 
L 598.306332 193.419043 
L 598.553869 192.821006 
L 598.677638 193.60265 
L 599.791555 193.581667 
L 599.915324 193.450518 
L 600.162861 189.432131 
L 600.410398 188.965243 
L 600.781704 190.077381 
L 600.905472 189.626231 
L 601.029241 186.798672 
L 601.153009 188.162615 
L 601.276778 187.029493 
L 601.524315 185.927846 
L 601.771852 184.60587 
L 602.143158 185.413744 
L 602.514464 184.857675 
L 602.762001 186.562604 
L 603.009538 185.030791 
L 603.380843 185.335055 
L 603.504612 185.151448 
L 603.752149 184.117998 
L 603.875918 184.579641 
L 604.123455 184.726527 
L 604.989835 183.394059 
L 605.113603 183.777013 
L 605.237372 183.116025 
L 605.361141 180.430105 
L 605.608678 197.012509 
L 619.22322 175.079251 
L 619.346989 174.323836 
L 619.470757 174.6281 
L 619.718294 174.113999 
L 619.842063 172.482513 
L 619.965832 172.687104 
L 620.0896 172.52448 
L 620.213369 172.687104 
L 620.337137 172.561202 
L 620.584674 171.858246 
L 620.95598 165.18017 
L 621.079749 166.628048 
L 621.203517 165.662796 
L 621.574823 165.767715 
L 621.82236 165.001808 
L 621.946129 164.84443 
L 622.069897 165.085743 
L 622.317434 164.902135 
L 622.564972 165.007054 
L 622.936277 164.130983 
L 623.183814 157.47389 
L 623.307583 157.321758 
L 623.431352 156.797165 
L 623.55512 157.552579 
L 623.802657 159.866037 
L 624.050194 160.086366 
L 624.173963 161.749328 
L 624.4215 159.388657 
L 624.545269 159.918496 
L 624.669037 158.370945 
L 624.916574 159.12636 
L 625.040343 157.452907 
L 625.164111 158.811604 
L 625.411649 159.15259 
L 625.535417 159.897513 
L 625.906723 159.058163 
L 626.030491 159.283738 
L 626.15426 158.738161 
L 626.278029 158.711931 
L 626.401797 157.814876 
L 626.649334 158.533569 
L 626.773103 158.208321 
L 626.896871 146.641033 
L 628.010789 145.555124 
L 628.134557 147.286283 
L 628.382094 147.905303 
L 628.505863 145.749224 
L 628.629631 146.289555 
L 628.7534 146.310539 
L 628.877168 146.835133 
L 629.000937 148.902031 
L 629.372243 148.5558 
L 629.372243 146.756444 
L 629.496011 146.546606 
L 629.743548 148.650226 
L 629.867317 146.074472 
L 630.238623 146.221358 
L 630.238623 145.130203 
L 630.362391 143.336093 
L 630.48616 145.235122 
L 630.609928 145.235122 
L 630.733697 143.949868 
L 631.105003 143.661341 
L 631.35254 142.890189 
L 631.476308 142.717073 
L 631.600077 143.073797 
L 631.847614 141.788542 
L 632.095151 134.166198 
L 632.21892 134.82194 
L 632.342688 132.225201 
L 632.342688 132.760287 
L 632.713994 128.233044 
L 632.837763 129.061902 
L 632.961531 127.493367 
L 633.209068 129.717644 
L 633.332837 126.349753 
L 633.580374 123.663834 
L 633.704143 123.648096 
L 633.827911 122.82973 
L 634.075448 119.792333 
L 634.199217 111.41982 
L 634.199217 112.893928 
L 634.446754 127.136644 
L 634.570523 125.038269 
L 634.694291 127.876321 
L 634.81806 122.66186 
L 634.941828 125.867127 
L 635.436903 119.88676 
L 635.560671 121.151031 
L 635.808208 120.316927 
L 635.808208 118.879541 
L 635.931977 118.669703 
L 636.303283 120.636929 
L 636.427051 119.871023 
L 636.674588 109.174559 
L 636.798357 110.858505 
L 637.045894 105.612569 
L 637.169663 98.116127 
L 637.4172 108.251275 
L 637.540968 110.538503 
L 637.664737 108.597506 
L 638.036043 101.006637 
L 638.159811 102.186973 
L 638.28358 101.80402 
L 638.531117 102.428286 
L 639.14996 102.994847 
L 639.397497 103.461735 
L 639.768802 103.624359 
L 640.01634 103.472227 
L 640.140108 95.042008 
L 640.635182 94.061018 
L 640.758951 94.076756 
L 640.88272 113.182454 
L 641.006488 113.24016 
L 641.130257 112.448023 
L 641.377794 112.138513 
L 641.625331 105.145681 
L 641.7491 103.860426 
L 641.996637 96.988251 
L 642.244174 55.791917 
L 642.367942 68.382163 
L 642.491711 69.489055 
L 642.61548 73.444491 
L 642.863017 75.899589 
L 643.234322 104.474201 
L 643.48186 89.937713 
L 643.605628 89.649186 
L 643.729397 91.821004 
L 643.976934 89.953451 
L 644.100702 48.9722 
L 645.957231 60.985393 
L 646.080999 64.814926 
L 646.204768 64.736237 
L 646.328537 65.203125 
L 646.576074 64.799188 
L 646.699842 68.959216 
L 646.947379 64.699516 
L 647.194917 64.195906 
L 647.442454 64.50017 
L 647.813759 59.673909 
L 647.937528 59.972927 
L 648.061297 61.536216 
L 648.556371 59.747352 
L 648.803908 60.502767 
L 648.803908 57.360451 
L 648.927677 51.684349 
L 649.422751 42.409534 
L 649.670288 50.420078 
L 649.794056 49.580729 
L 650.041594 51.401068 
L 650.165362 55.566341 
L 650.289131 51.049591 
L 650.536668 53.426 
L 650.660436 52.980095 
L 651.031742 61.525724 
L 651.155511 58.388655 
L 651.403048 63.214916 
L 651.526816 63.146719 
L 651.774354 61.809005 
L 652.021891 57.701437 
L 652.145659 58.16308 
L 652.269428 62.055564 
L 652.640734 59.542761 
L 652.764502 60.974901 
L 652.888271 59.899484 
L 653.135808 64.531646 
L 653.259576 63.193932 
L 653.507114 63.540164 
L 653.878419 64.715253 
L 654.125956 73.712033 
L 654.373494 72.37432 
L 654.497262 84.733744 
L 654.744799 69.531023 
L 654.868568 74.913353 
L 654.992336 75.14942 
L 655.239873 72.484484 
L 655.363642 73.113997 
L 655.487411 75.810408 
L 655.611179 74.472694 
L 655.734948 76.392707 
L 655.858716 70.41234 
L 656.106253 64.390005 
L 656.353791 70.055616 
L 656.601328 72.982848 
L 657.220171 67.857569 
L 657.343939 68.513311 
L 657.467708 68.408392 
L 657.591476 67.264778 
L 657.962782 69.079872 
L 658.086551 69.803811 
L 658.210319 73.386785 
L 658.457856 72.783503 
L 658.705393 74.997288 
L 658.829162 77.457632 
L 658.952931 75.107452 
L 659.076699 75.112698 
L 659.200468 76.933038 
L 659.324236 76.056967 
L 659.571773 76.350739 
L 659.695542 77.635993 
L 659.943079 75.007779 
L 660.066848 74.682531 
L 660.066848 74.682531 
" clip-path="url(#p706d38d4c1)" style="fill: none; stroke: #1f77b4; stroke-width: 2; stroke-linecap: square"/>
   </g>
   <g id="patch_3">
    <path d="M 106.58 338.289757 
L 106.58 28.32 
" style="fill: none; stroke: #000000; stroke-width: 0.8; stroke-linejoin: miter; stroke-linecap: square"/>
   </g>
   <g id="patch_4">
    <path d="M 686.423364 338.289757 
L 686.423364 28.32 
" style="fill: none; stroke: #000000; stroke-width: 0.8; stroke-linejoin: miter; stroke-linecap: square"/>
   </g>
   <g id="patch_5">
    <path d="M 106.58 338.289757 
L 686.423364 338.289757 
" style="fill: none; stroke: #000000; stroke-width: 0.8; stroke-linejoin: miter; stroke-linecap: square"/>
   </g>
   <g id="patch_6">
    <path d="M 106.58 28.32 
L 686.423364 28.32 
" style="fill: none; stroke: #000000; stroke-width: 0.8; stroke-linejoin: miter; stroke-linecap: square"/>
   </g>
   <g id="text_16">
    <!-- Price of USD over time -->
    <g transform="translate(306.095432 22.32) scale(0.16 -0.16)">
     <defs>
      <path id="DejaVuSans-6f" d="M 1959 3097 
Q 1497 3097 1228 2736 
Q 959 2375 959 1747 
Q 959 1119 1226 758 
Q 1494 397 1959 397 
Q 2419 397 2687 759 
Q 2956 1122 2956 1747 
Q 2956 2369 2687 2733 
Q 2419 3097 1959 3097 
z
M 1959 3584 
Q 2709 3584 3137 3096 
Q 3566 2609 3566 1747 
Q 3566 888 3137 398 
Q 2709 -91 1959 -91 
Q 1206 -91 779 398 
Q 353 888 353 1747 
Q 353 2609 779 3096 
Q 1206 3584 1959 3584 
z
" transform="scale(0.015625)"/>
      <path id="DejaVuSans-66" d="M 2375 4863 
L 2375 4384 
L 1825 4384 
Q 1516 4384 1395 4259 
Q 1275 4134 1275 3809 
L 1275 3500 
L 2222 3500 
L 2222 3053 
L 1275 3053 
L 1275 0 
L 697 0 
L 697 3053 
L 147 3053 
L 147 3500 
L 697 3500 
L 697 3744 
Q 697 4328 969 4595 
Q 1241 4863 1831 4863 
L 2375 4863 
z
" transform="scale(0.015625)"/>
      <path id="DejaVuSans-55" d="M 556 4666 
L 1191 4666 
L 1191 1831 
Q 1191 1081 1462 751 
Q 1734 422 2344 422 
Q 2950 422 3222 751 
Q 3494 1081 3494 1831 
L 3494 4666 
L 4128 4666 
L 4128 1753 
Q 4128 841 3676 375 
Q 3225 -91 2344 -91 
Q 1459 -91 1007 375 
Q 556 841 556 1753 
L 556 4666 
z
" transform="scale(0.015625)"/>
      <path id="DejaVuSans-53" d="M 3425 4513 
L 3425 3897 
Q 3066 4069 2747 4153 
Q 2428 4238 2131 4238 
Q 1616 4238 1336 4038 
Q 1056 3838 1056 3469 
Q 1056 3159 1242 3001 
Q 1428 2844 1947 2747 
L 2328 2669 
Q 3034 2534 3370 2195 
Q 3706 1856 3706 1288 
Q 3706 609 3251 259 
Q 2797 -91 1919 -91 
Q 1588 -91 1214 -16 
Q 841 59 441 206 
L 441 856 
Q 825 641 1194 531 
Q 1563 422 1919 422 
Q 2459 422 2753 634 
Q 3047 847 3047 1241 
Q 3047 1584 2836 1778 
Q 2625 1972 2144 2069 
L 1759 2144 
Q 1053 2284 737 2584 
Q 422 2884 422 3419 
Q 422 4038 858 4394 
Q 1294 4750 2059 4750 
Q 2388 4750 2728 4690 
Q 3069 4631 3425 4513 
z
" transform="scale(0.015625)"/>
      <path id="DejaVuSans-76" d="M 191 3500 
L 800 3500 
L 1894 563 
L 2988 3500 
L 3597 3500 
L 2284 0 
L 1503 0 
L 191 3500 
z
" transform="scale(0.015625)"/>
      <path id="DejaVuSans-6d" d="M 3328 2828 
Q 3544 3216 3844 3400 
Q 4144 3584 4550 3584 
Q 5097 3584 5394 3201 
Q 5691 2819 5691 2113 
L 5691 0 
L 5113 0 
L 5113 2094 
Q 5113 2597 4934 2840 
Q 4756 3084 4391 3084 
Q 3944 3084 3684 2787 
Q 3425 2491 3425 1978 
L 3425 0 
L 2847 0 
L 2847 2094 
Q 2847 2600 2669 2842 
Q 2491 3084 2119 3084 
Q 1678 3084 1418 2786 
Q 1159 2488 1159 1978 
L 1159 0 
L 581 0 
L 581 3500 
L 1159 3500 
L 1159 2956 
Q 1356 3278 1631 3431 
Q 1906 3584 2284 3584 
Q 2666 3584 2933 3390 
Q 3200 3197 3328 2828 
z
" transform="scale(0.015625)"/>
     </defs>
     <use xlink:href="#DejaVuSans-50"/>
     <use xlink:href="#DejaVuSans-72" x="58.552734"/>
     <use xlink:href="#DejaVuSans-69" x="99.666016"/>
     <use xlink:href="#DejaVuSans-63" x="127.449219"/>
     <use xlink:href="#DejaVuSans-65" x="182.429688"/>
     <use xlink:href="#DejaVuSans-20" x="243.953125"/>
     <use xlink:href="#DejaVuSans-6f" x="275.740234"/>
     <use xlink:href="#DejaVuSans-66" x="336.921875"/>
     <use xlink:href="#DejaVuSans-20" x="372.126953"/>
     <use xlink:href="#DejaVuSans-55" x="403.914062"/>
     <use xlink:href="#DejaVuSans-53" x="477.107422"/>
     <use xlink:href="#DejaVuSans-44" x="540.583984"/>
     <use xlink:href="#DejaVuSans-20" x="617.585938"/>
     <use xlink:href="#DejaVuSans-6f" x="649.373047"/>
     <use xlink:href="#DejaVuSans-76" x="710.554688"/>
     <use xlink:href="#DejaVuSans-65" x="769.734375"/>
     <use xlink:href="#DejaVuSans-72" x="831.257812"/>
     <use xlink:href="#DejaVuSans-20" x="872.371094"/>
     <use xlink:href="#DejaVuSans-74" x="904.158203"/>
     <use xlink:href="#DejaVuSans-69" x="943.367188"/>
     <use xlink:href="#DejaVuSans-6d" x="971.150391"/>
     <use xlink:href="#DejaVuSans-65" x="1068.5625"/>
    </g>
   </g>
  </g>
 </g>
 <defs>
  <clipPath id="p706d38d4c1">
   <rect x="106.58" y="28.32" width="579.843364" height="309.969757"/>
  </clipPath>
 </defs>
</svg>
